REM DIRINDEX 1\2,1\3,1\4,1\5
REM DIRNAME cjc044,folder01,folder02,folder03,folder04
TITLE ""
FILE "1800_091.mp3" MP3
  TRACK 01 AUDIO
    TITLE "2:cjc044_2453"
    INDEX 01 00:00:00
  TRACK 02 AUDIO
    TITLE "0:"
    INDEX 01 00:01:15
  TRACK 03 AUDIO
    TITLE "3:cjc044_2454"
    INDEX 01 00:01:69
  TRACK 04 AUDIO
    TITLE "0:"
    INDEX 01 00:02:57
  TRACK 05 AUDIO
    TITLE "4:cjc044_2455"
    INDEX 01 00:03:41
  TRACK 06 AUDIO
    TITLE "0:"
    INDEX 01 00:04:60
  TRACK 07 AUDIO
    TITLE "5:cjc044_2456"
    INDEX 01 00:05:42
  TRACK 08 AUDIO
    TITLE "0:"
    INDEX 01 00:09:30
  TRACK 09 AUDIO
    TITLE "2:cjc044_2457"
    INDEX 01 00:11:13
  TRACK 10 AUDIO
    TITLE "0:"
    INDEX 01 00:12:36
  TRACK 11 AUDIO
    TITLE "3:cjc044_2458"
    INDEX 01 00:13:20
  TRACK 12 AUDIO
    TITLE "0:"
    INDEX 01 00:14:54
  TRACK 13 AUDIO
    TITLE "4:cjc044_2459"
    INDEX 01 00:15:38
  TRACK 14 AUDIO
    TITLE "0:"
    INDEX 01 00:16:67
  TRACK 15 AUDIO
    TITLE "5:cjc044_2460"
    INDEX 01 00:17:47
  TRACK 16 AUDIO
    TITLE "0:"
    INDEX 01 00:20:49
  TRACK 17 AUDIO
    TITLE "2:cjc044_2461"
    INDEX 01 00:22:25
  TRACK 18 AUDIO
    TITLE "0:"
    INDEX 01 00:23:46
  TRACK 19 AUDIO
    TITLE "3:cjc044_2462"
    INDEX 01 00:24:27
  TRACK 20 AUDIO
    TITLE "0:"
    INDEX 01 00:25:48
  TRACK 21 AUDIO
    TITLE "4:cjc044_2463"
    INDEX 01 00:26:30
  TRACK 22 AUDIO
    TITLE "0:"
    INDEX 01 00:27:55
  TRACK 23 AUDIO
    TITLE "5:cjc044_2464"
    INDEX 01 00:28:29
  TRACK 24 AUDIO
    TITLE "0:"
    INDEX 01 00:32:01
  TRACK 25 AUDIO
    TITLE "2:cjc044_2465"
    INDEX 01 00:33:58
  TRACK 26 AUDIO
    TITLE "0:"
    INDEX 01 00:34:51
  TRACK 27 AUDIO
    TITLE "3:cjc044_2466"
    INDEX 01 00:35:39
  TRACK 28 AUDIO
    TITLE "0:"
    INDEX 01 00:37:10
  TRACK 29 AUDIO
    TITLE "4:cjc044_2467"
    INDEX 01 00:38:00
  TRACK 30 AUDIO
    TITLE "0:"
    INDEX 01 00:38:69
  TRACK 31 AUDIO
    TITLE "5:cjc044_2468"
    INDEX 01 00:39:45
  TRACK 32 AUDIO
    TITLE "0:"
    INDEX 01 00:43:37
  TRACK 33 AUDIO
    TITLE "2:cjc044_2469"
    INDEX 01 00:45:24
  TRACK 34 AUDIO
    TITLE "0:"
    INDEX 01 00:46:43
  TRACK 35 AUDIO
    TITLE "3:cjc044_2470"
    INDEX 01 00:47:25
  TRACK 36 AUDIO
    TITLE "0:"
    INDEX 01 00:48:53
  TRACK 37 AUDIO
    TITLE "4:cjc044_2471"
    INDEX 01 00:49:41
  TRACK 38 AUDIO
    TITLE "0:"
    INDEX 01 00:50:60
  TRACK 39 AUDIO
    TITLE "5:cjc044_2472"
    INDEX 01 00:51:42
  TRACK 40 AUDIO
    TITLE "0:"
    INDEX 01 00:55:48
  TRACK 41 AUDIO
    TITLE "2:cjc044_2473"
    INDEX 01 00:57:29
  TRACK 42 AUDIO
    TITLE "0:"
    INDEX 01 00:58:40
  TRACK 43 AUDIO
    TITLE "3:cjc044_2474"
    INDEX 01 00:59:24
  TRACK 44 AUDIO
    TITLE "0:"
    INDEX 01 01:02:34
  TRACK 45 AUDIO
    TITLE "4:cjc044_2475"
    INDEX 01 01:03:12
  TRACK 46 AUDIO
    TITLE "0:"
    INDEX 01 01:04:21
  TRACK 47 AUDIO
    TITLE "5:cjc044_2476"
    INDEX 01 01:05:01
  TRACK 48 AUDIO
    TITLE "0:"
    INDEX 01 01:09:36
  TRACK 49 AUDIO
    TITLE "2:cjc044_2477"
    INDEX 01 01:11:17
  TRACK 50 AUDIO
    TITLE "0:"
    INDEX 01 01:12:23
  TRACK 51 AUDIO
    TITLE "3:cjc044_2478"
    INDEX 01 01:13:12
  TRACK 52 AUDIO
    TITLE "0:"
    INDEX 01 01:14:19
  TRACK 53 AUDIO
    TITLE "4:cjc044_2479"
    INDEX 01 01:15:03
  TRACK 54 AUDIO
    TITLE "0:"
    INDEX 01 01:16:09
  TRACK 55 AUDIO
    TITLE "5:cjc044_2480"
    INDEX 01 01:16:71
  TRACK 56 AUDIO
    TITLE "0:"
    INDEX 01 01:20:51
  TRACK 57 AUDIO
    TITLE "2:cjc044_2481"
    INDEX 01 01:22:41
  TRACK 58 AUDIO
    TITLE "0:"
    INDEX 01 01:23:42
  TRACK 59 AUDIO
    TITLE "3:cjc044_2482"
    INDEX 01 01:24:32
  TRACK 60 AUDIO
    TITLE "0:"
    INDEX 01 01:25:45
  TRACK 61 AUDIO
    TITLE "4:cjc044_2483"
    INDEX 01 01:26:25
  TRACK 62 AUDIO
    TITLE "0:"
    INDEX 01 01:27:30
  TRACK 63 AUDIO
    TITLE "5:cjc044_2484"
    INDEX 01 01:28:04
  TRACK 64 AUDIO
    TITLE "0:"
    INDEX 01 01:30:67
